<svg width="80" height="80" viewBox="0 0 80 80" fill="none" xmlns="http://www.w3.org/2000/svg">
<path d="M2.34375 68.2812H77.6562V58.9062H2.34375V68.2812Z" stroke="#F1C17E" stroke-width="2" stroke-miterlimit="10" stroke-linecap="round" stroke-linejoin="round"/>
<path d="M7.03125 68.2812H17.9687L14.8437 77.6562H7.03125V68.2812Z" stroke="#F1C17E" stroke-width="2" stroke-miterlimit="10" stroke-linecap="round" stroke-linejoin="round"/>
<path d="M72.9687 68.2812H62.0312L65.1562 77.6562H72.9687V68.2812Z" stroke="#F1C17E" stroke-width="2" stroke-miterlimit="10" stroke-linecap="round" stroke-linejoin="round"/>
<path d="M24.375 30.7813H33.75C37.2019 30.7813 40 33.5794 40 37.0313V43.2812H18.125V37.0313C18.125 33.5794 20.9231 30.7813 24.375 30.7813Z" stroke="#F1C17E" stroke-width="2" stroke-miterlimit="10" stroke-linecap="round" stroke-linejoin="round"/>
<path d="M55.625 30.7813H46.25C42.7981 30.7813 40 33.5794 40 37.0313V43.2812H61.875V37.0313C61.875 33.5794 59.0769 30.7813 55.625 30.7813Z" stroke="#F1C17E" stroke-width="2" stroke-miterlimit="10" stroke-linecap="round" stroke-linejoin="round"/>
<path d="M8.59375 43.2813H71.4062C74.8581 43.2813 77.6562 46.0794 77.6562 49.5313V58.9062H2.34375V49.5313C2.34375 46.0794 5.14187 43.2813 8.59375 43.2813Z" stroke="#F1C17E" stroke-width="2" stroke-miterlimit="10" stroke-linecap="round" stroke-linejoin="round"/>
<path d="M71.4062 43.2812V8.59375C65.8547 6.25469 54.7353 2.34375 40 2.34375C25.2647 2.34375 14.1453 6.25469 8.59375 8.59375V43.2812" stroke="#F1C17E" stroke-width="2" stroke-miterlimit="10" stroke-linecap="round" stroke-linejoin="round"/>
<path d="M8.59375 2.34375V8.59375" stroke="#F1C17E" stroke-width="2" stroke-miterlimit="10" stroke-linecap="round" stroke-linejoin="round"/>
<path d="M71.4062 2.34375V8.59375" stroke="#F1C17E" stroke-width="2" stroke-miterlimit="10" stroke-linecap="round" stroke-linejoin="round"/>
</svg>
