<svg width="48" height="48" viewBox="0 0 48 48" fill="none" xmlns="http://www.w3.org/2000/svg">
<path d="M34 4L34 34" stroke="#152332" stroke-width="2" stroke-miterlimit="10" stroke-linecap="round" stroke-linejoin="round"/>
<path d="M36.9474 11.3705C35.2439 11.3705 33.8628 12.7515 33.8628 14.4551V17.5397H36.9474C38.6509 17.5397 40.032 16.1587 40.032 14.4551C40.032 12.7515 38.6509 11.3705 36.9474 11.3705Z" stroke="#152332" stroke-width="2" stroke-miterlimit="10" stroke-linecap="round" stroke-linejoin="round"/>
<path d="M30.7782 11.3705C32.4817 11.3705 33.8628 12.7515 33.8628 14.4551V17.5397H30.7782C29.0747 17.5397 27.6936 16.1587 27.6936 14.4551C27.6936 12.7515 29.0747 11.3705 30.7782 11.3705Z" stroke="#152332" stroke-width="2" stroke-miterlimit="10" stroke-linecap="round" stroke-linejoin="round"/>
<path d="M46.5949 17.5394H1.31226" stroke="#152332" stroke-width="2" stroke-miterlimit="10" stroke-linecap="round" stroke-linejoin="round"/>
<path d="M23.9999 44.3348L5.27052 25.6054C0.118159 20.4532 0.118159 12.0994 5.27052 6.94716C10.4229 1.79479 18.7764 1.79479 23.9288 6.94716L23.9999 7.01832L24.0711 6.94716C29.2235 1.79479 37.577 1.79479 42.7293 6.94716C47.8817 12.0993 47.8817 20.4531 42.7293 25.6054L23.9999 44.3348Z" stroke="#935C10" stroke-width="2" stroke-miterlimit="10" stroke-linecap="round" stroke-linejoin="round"/>
</svg>
