<svg width="48" height="48" viewBox="0 0 48 48" fill="none" xmlns="http://www.w3.org/2000/svg">
<g clip-path="url(#clip0_410_2396)">
<path d="M17.7036 6.39779C17.7036 6.39779 21.8889 8.60026 28.5381 7.73204C34.782 6.91679 39.5357 10.496 40.8603 12.8745" stroke="#152332" stroke-width="2" stroke-miterlimit="10" stroke-linecap="round" stroke-linejoin="round"/>
<path d="M12.5221 38.7283C12.5221 38.7283 12.3369 34.0024 8.26043 28.6782C4.43243 23.6785 5.15524 17.772 6.55277 15.4355" stroke="#152332" stroke-width="2" stroke-miterlimit="10" stroke-linecap="round" stroke-linejoin="round"/>
<path d="M43.1971 27.4739C43.1971 27.4739 39.1971 29.9973 36.6244 36.1898C34.2085 42.0047 28.7319 44.3321 26.0098 44.29" stroke="#152332" stroke-width="2" stroke-miterlimit="10" stroke-linecap="round" stroke-linejoin="round"/>
<path d="M17.7036 6.39785C17.7036 6.39785 32.8659 -8.35962 40.8604 12.8746C40.8604 12.8746 35.9118 11.7963 31.0855 13.9877C27.1049 15.7953 17.2348 17.4119 17.7036 6.39785Z" stroke="#935C10" stroke-width="2" stroke-miterlimit="10" stroke-linecap="round" stroke-linejoin="round"/>
<path d="M6.98657 9.13953C11.6463 4.34496 17.7036 6.3979 17.7036 6.3979" stroke="#935C10" stroke-width="2" stroke-miterlimit="10" stroke-linecap="round" stroke-linejoin="round"/>
<path d="M12.5222 38.7283C12.5222 38.7283 -7.83927 32.9761 6.55286 15.4355C6.55286 15.4355 8.09336 20.2604 12.4043 23.3442C15.96 25.8878 22.2951 33.6272 12.5222 38.7283Z" stroke="#935C10" stroke-width="2" stroke-miterlimit="10" stroke-linecap="round" stroke-linejoin="round"/>
<path d="M20.255 46.6387C13.7729 45.0005 12.5222 38.7282 12.5222 38.7282" stroke="#935C10" stroke-width="2" stroke-miterlimit="10" stroke-linecap="round" stroke-linejoin="round"/>
<path d="M43.1971 27.474C43.1971 27.474 48.3963 47.9838 26.0098 44.29C26.0098 44.29 29.4179 40.5435 29.9332 35.2682C30.3582 30.917 33.8931 21.561 43.1971 27.474Z" stroke="#935C10" stroke-width="2" stroke-miterlimit="10" stroke-linecap="round" stroke-linejoin="round"/>
<path d="M46.1813 16.8219C48.0035 23.2547 43.197 27.474 43.197 27.474" stroke="#935C10" stroke-width="2" stroke-miterlimit="10" stroke-linecap="round" stroke-linejoin="round"/>
</g>
<defs>
<clipPath id="clip0_410_2396">
<rect width="48" height="48" fill="white"/>
</clipPath>
</defs>
</svg>
